<svg width="18" height="18" viewBox="0 0 18 18" fill="none" xmlns="http://www.w3.org/2000/svg">
<path d="M2.76923 0H15.2308C16.758 0 18 1.29168 18 2.88V17.28C18 17.5594 17.8449 17.8142 17.6012 17.9323C17.5085 17.977 17.4074 18 17.3077 18C17.1485 18 16.9906 17.9424 16.8646 17.833L12.9032 14.4H2.76923C1.242 14.4 0 13.1083 0 11.52V2.88C0 1.29168 1.242 0 2.76923 0ZM1.38462 11.52C1.38462 12.3134 2.00492 12.96 2.76923 12.96H13.1538C13.3158 12.96 13.4723 13.019 13.5969 13.127L16.6154 15.7435V2.88C16.6154 2.08656 15.9951 1.44 15.2308 1.44H2.76923C2.00492 1.44 1.38462 2.08656 1.38462 2.88V11.52Z" fill="#2A336E"/>
</svg>
