<svg width="18" height="18" viewBox="0 0 18 18" fill="none" xmlns="http://www.w3.org/2000/svg">
<g clip-path="url(#clip0_609_37)">
<path fill-rule="evenodd" clip-rule="evenodd" d="M3.13448 6.43325C3.48678 6.38922 3.80807 6.63911 3.85211 6.99141L5.06743 16.714H12.9324L14.1477 6.99141C14.1918 6.63911 14.5131 6.38922 14.8654 6.43325C15.2177 6.47729 15.4676 6.79859 15.4235 7.15088L14.1378 17.4366C14.0976 17.7583 13.8241 17.9997 13.4999 17.9997H4.49993C4.17572 17.9997 3.90225 17.7583 3.86203 17.4366L2.57632 7.15088C2.53228 6.79859 2.78218 6.47729 3.13448 6.43325Z" fill="#2A336E"/>
<path fill-rule="evenodd" clip-rule="evenodd" d="M0.642822 4.49979C0.642822 4.14475 0.930639 3.85693 1.28568 3.85693H16.7143C17.0693 3.85693 17.3571 4.14475 17.3571 4.49979C17.3571 4.85483 17.0693 5.14265 16.7143 5.14265H1.28568C0.930639 5.14265 0.642822 4.85483 0.642822 4.49979Z" fill="#2A336E"/>
<path fill-rule="evenodd" clip-rule="evenodd" d="M7.01988 1.25984C6.84938 1.25984 6.68587 1.32756 6.56531 1.44812C6.44475 1.56868 6.37702 1.7322 6.37702 1.90269V4.12698C6.37702 4.48202 6.08921 4.76983 5.73417 4.76983C5.37913 4.76983 5.09131 4.48202 5.09131 4.12698V1.90269C5.09131 1.3912 5.2945 0.900664 5.65617 0.538987C6.01785 0.177309 6.50839 -0.0258789 7.01988 -0.0258789H10.877C11.3885 -0.0258789 11.8791 0.177309 12.2407 0.538987C12.6024 0.900664 12.8056 1.3912 12.8056 1.90269V4.47412C12.8056 4.82916 12.5178 5.11698 12.1627 5.11698C11.8077 5.11698 11.5199 4.82916 11.5199 4.47412V1.90269C11.5199 1.7322 11.4521 1.56868 11.3316 1.44812C11.211 1.32756 11.0475 1.25984 10.877 1.25984H7.01988Z" fill="#2A336E"/>
</g>
<defs>
<clipPath id="clip0_609_37">
<rect width="18" height="18" fill="white"/>
</clipPath>
</defs>
</svg>
