<svg width="15" height="15" viewBox="0 0 15 15" fill="none" xmlns="http://www.w3.org/2000/svg">
<path fill-rule="evenodd" clip-rule="evenodd" d="M5.83333 1.66666C4.72826 1.66666 3.66846 2.10564 2.88706 2.88705C2.10565 3.66845 1.66667 4.72826 1.66667 5.83332C1.66667 6.93839 2.10565 7.9982 2.88706 8.7796C3.66846 9.561 4.72826 9.99999 5.83333 9.99999C6.9384 9.99999 7.99821 9.561 8.77961 8.7796C9.56101 7.9982 10 6.93839 10 5.83332C10 4.72826 9.56101 3.66845 8.77961 2.88705C7.99821 2.10564 6.9384 1.66666 5.83333 1.66666ZM1.83818e-07 5.83332C1.75816e-06 4.90937 0.219479 3.99864 0.64036 3.17612C1.06124 2.35359 1.67148 1.64281 2.42084 1.1023C3.17019 0.561793 4.03722 0.207017 4.95053 0.0671883C5.86384 -0.07264 6.7973 0.00647974 7.67404 0.298032C8.55079 0.589585 9.34574 1.08523 9.99343 1.74415C10.6411 2.40308 11.123 3.20643 11.3995 4.08806C11.6759 4.96968 11.739 5.90436 11.5835 6.81513C11.4279 7.7259 11.0583 8.58671 10.505 9.32666L14.7558 13.5767C14.9122 13.7329 15.0001 13.9449 15.0002 14.1659C15.0002 14.387 14.9125 14.599 14.7563 14.7554C14.6 14.9118 14.388 14.9997 14.167 14.9997C13.9459 14.9998 13.7339 14.9121 13.5775 14.7558L9.3275 10.5058C8.46043 11.1544 7.42994 11.5489 6.35139 11.6451C5.27284 11.7412 4.18882 11.5353 3.22067 11.0503C2.25253 10.5653 1.43848 9.82046 0.869669 8.89907C0.300855 7.97768 -0.000271604 6.91615 1.83818e-07 5.83332Z" fill="#2A336E"/>
</svg>
