<svg width="22" height="22" viewBox="0 0 22 22" fill="none" xmlns="http://www.w3.org/2000/svg">
<mask id="path-1-outside-1_69:183" maskUnits="userSpaceOnUse" x="0" y="0" width="22" height="22" fill="black">
<rect fill="white" width="22" height="22"/>
<path d="M11 1C5.486 1 1 5.486 1 11C1 13.415 1.86067 15.6327 3.29133 17.3627C3.295 17.3677 3.29533 17.374 3.29933 17.3787C4.33233 18.6243 5.62967 19.5793 7.07533 20.1963C7.092 20.2033 7.10833 20.211 7.125 20.218C7.242 20.2673 7.36033 20.313 7.479 20.3577C7.52567 20.3753 7.57233 20.3933 7.61967 20.4103C7.722 20.447 7.825 20.4817 7.92867 20.515C7.995 20.5363 8.06133 20.5573 8.12833 20.5773C8.22 20.6047 8.312 20.631 8.40467 20.656C8.486 20.678 8.568 20.6983 8.65 20.718C8.733 20.738 8.81633 20.758 8.9 20.7757C8.99333 20.7957 9.08767 20.8133 9.18233 20.8307C9.25833 20.8447 9.334 20.8593 9.41067 20.8717C9.51567 20.8887 9.62133 20.902 9.72733 20.9157C9.79567 20.9243 9.86367 20.9343 9.93233 20.9417C10.0523 20.9543 10.1733 20.9633 10.2947 20.9717C10.351 20.9757 10.407 20.9817 10.4637 20.9847C10.6407 20.9947 10.8197 21 11 21C11.1803 21 11.3593 20.9947 11.537 20.9853C11.5937 20.9823 11.6497 20.9763 11.706 20.9723C11.8273 20.9637 11.9483 20.955 12.0683 20.9423C12.137 20.935 12.205 20.925 12.2733 20.9163C12.3793 20.9027 12.485 20.8893 12.59 20.8723C12.6663 20.86 12.7423 20.8453 12.8183 20.8313C12.9127 20.814 13.007 20.7963 13.1007 20.7763C13.1843 20.7583 13.2673 20.7387 13.3507 20.7187C13.4327 20.6987 13.5147 20.6783 13.596 20.6567C13.6887 20.632 13.7807 20.6053 13.8723 20.578C13.9393 20.558 14.0057 20.537 14.072 20.5157C14.1757 20.4823 14.2787 20.4477 14.381 20.411C14.428 20.394 14.4747 20.376 14.5217 20.3583C14.6407 20.3137 14.7587 20.2677 14.8757 20.2187C14.8923 20.2117 14.9087 20.204 14.9253 20.197C16.3707 19.58 17.6683 18.625 18.7013 17.3793C18.7053 17.3747 18.7057 17.368 18.7093 17.3633C20.1393 15.6327 21 13.415 21 11C21 5.486 16.514 1 11 1ZM15.0523 19.4067C15.0473 19.409 15.0427 19.4117 15.0377 19.414C14.9187 19.4713 14.7977 19.5253 14.6757 19.578C14.648 19.5897 14.6207 19.6017 14.593 19.6133C14.4863 19.658 14.3783 19.7003 14.2697 19.741C14.2243 19.758 14.179 19.7747 14.1333 19.7907C14.037 19.825 13.9403 19.858 13.8427 19.8893C13.782 19.9087 13.721 19.927 13.66 19.945C13.5733 19.971 13.4863 19.996 13.3983 20.0193C13.3243 20.039 13.2497 20.057 13.175 20.0747C13.0967 20.0933 13.0187 20.1123 12.9397 20.129C12.8533 20.1473 12.7663 20.163 12.6797 20.1787C12.6093 20.1917 12.5393 20.2053 12.4683 20.2167C12.3707 20.232 12.272 20.2443 12.1737 20.2567C12.1113 20.2647 12.0493 20.274 11.9863 20.2807C11.874 20.2927 11.7607 20.3003 11.6477 20.3083C11.5973 20.3117 11.5473 20.3173 11.4963 20.32C11.3313 20.3287 11.166 20.3333 11 20.3333C10.834 20.3333 10.6687 20.3287 10.504 20.32C10.4533 20.3173 10.4033 20.312 10.3527 20.3083C10.2393 20.3007 10.1263 20.2927 10.014 20.2807C9.951 20.274 9.889 20.2647 9.82667 20.2567C9.72833 20.2443 9.62967 20.232 9.532 20.2167C9.461 20.2053 9.391 20.1917 9.32067 20.1787C9.23367 20.163 9.14667 20.147 9.06067 20.129C8.98167 20.1123 8.90333 20.0933 8.82533 20.0747C8.75067 20.0567 8.676 20.039 8.602 20.0193C8.51433 19.996 8.427 19.9707 8.34033 19.945C8.27933 19.927 8.21833 19.9087 8.15767 19.8893C8.06 19.858 7.963 19.825 7.867 19.7907C7.82133 19.7743 7.776 19.7577 7.73067 19.741C7.622 19.7003 7.514 19.658 7.40733 19.6133C7.37967 19.602 7.35267 19.59 7.325 19.5783C7.203 19.526 7.082 19.4717 6.96267 19.4143C6.95767 19.412 6.953 19.4097 6.948 19.407C5.785 18.8443 4.75767 18.0457 3.924 17.0757C4.56833 14.703 6.39233 12.7903 8.739 12.0293C8.78533 12.0577 8.83367 12.083 8.88133 12.1097C8.90933 12.1253 8.937 12.142 8.96533 12.157C9.06467 12.2097 9.16533 12.259 9.26833 12.3033C9.34733 12.338 9.429 12.3673 9.51033 12.3973C9.52633 12.403 9.54233 12.4093 9.55833 12.415C10.0103 12.575 10.494 12.6667 11 12.6667C11.506 12.6667 11.9897 12.575 12.4413 12.415C12.4573 12.4093 12.4733 12.403 12.4893 12.3973C12.5707 12.3673 12.6523 12.338 12.7313 12.3033C12.8343 12.259 12.935 12.2097 13.0343 12.157C13.0627 12.1417 13.0903 12.1253 13.1183 12.1097C13.166 12.083 13.2147 12.0577 13.2613 12.029C15.608 12.7903 17.4317 14.703 18.0763 17.0753C17.2427 18.045 16.2153 18.8437 15.0523 19.4067ZM7.33333 8.33333C7.33333 6.31167 8.97833 4.66667 11 4.66667C13.0217 4.66667 14.6667 6.31167 14.6667 8.33333C14.6667 9.61933 13.9997 10.751 12.9947 11.4057C12.8633 11.491 12.7267 11.5673 12.5863 11.634C12.5697 11.642 12.5533 11.6503 12.5367 11.658C11.5713 12.097 10.4287 12.097 9.46333 11.658C9.44667 11.6503 9.43 11.642 9.41367 11.634C9.273 11.5673 9.13667 11.491 9.00533 11.4057C8.00033 10.751 7.33333 9.61933 7.33333 8.33333ZM18.5763 16.441C17.8207 14.2097 16.0967 12.4063 13.894 11.5497C14.775 10.756 15.3333 9.61 15.3333 8.33333C15.3333 5.944 13.3893 4 11 4C8.61067 4 6.66667 5.944 6.66667 8.33333C6.66667 9.61 7.225 10.756 8.10633 11.5497C5.90367 12.4067 4.17967 14.2097 3.424 16.441C2.31967 14.908 1.66667 13.0293 1.66667 11C1.66667 5.85367 5.85367 1.66667 11 1.66667C16.1463 1.66667 20.3333 5.85367 20.3333 11C20.3333 13.0293 19.6803 14.908 18.5763 16.441Z"/>
</mask>
<path d="M11 1C5.486 1 1 5.486 1 11C1 13.415 1.86067 15.6327 3.29133 17.3627C3.295 17.3677 3.29533 17.374 3.29933 17.3787C4.33233 18.6243 5.62967 19.5793 7.07533 20.1963C7.092 20.2033 7.10833 20.211 7.125 20.218C7.242 20.2673 7.36033 20.313 7.479 20.3577C7.52567 20.3753 7.57233 20.3933 7.61967 20.4103C7.722 20.447 7.825 20.4817 7.92867 20.515C7.995 20.5363 8.06133 20.5573 8.12833 20.5773C8.22 20.6047 8.312 20.631 8.40467 20.656C8.486 20.678 8.568 20.6983 8.65 20.718C8.733 20.738 8.81633 20.758 8.9 20.7757C8.99333 20.7957 9.08767 20.8133 9.18233 20.8307C9.25833 20.8447 9.334 20.8593 9.41067 20.8717C9.51567 20.8887 9.62133 20.902 9.72733 20.9157C9.79567 20.9243 9.86367 20.9343 9.93233 20.9417C10.0523 20.9543 10.1733 20.9633 10.2947 20.9717C10.351 20.9757 10.407 20.9817 10.4637 20.9847C10.6407 20.9947 10.8197 21 11 21C11.1803 21 11.3593 20.9947 11.537 20.9853C11.5937 20.9823 11.6497 20.9763 11.706 20.9723C11.8273 20.9637 11.9483 20.955 12.0683 20.9423C12.137 20.935 12.205 20.925 12.2733 20.9163C12.3793 20.9027 12.485 20.8893 12.59 20.8723C12.6663 20.86 12.7423 20.8453 12.8183 20.8313C12.9127 20.814 13.007 20.7963 13.1007 20.7763C13.1843 20.7583 13.2673 20.7387 13.3507 20.7187C13.4327 20.6987 13.5147 20.6783 13.596 20.6567C13.6887 20.632 13.7807 20.6053 13.8723 20.578C13.9393 20.558 14.0057 20.537 14.072 20.5157C14.1757 20.4823 14.2787 20.4477 14.381 20.411C14.428 20.394 14.4747 20.376 14.5217 20.3583C14.6407 20.3137 14.7587 20.2677 14.8757 20.2187C14.8923 20.2117 14.9087 20.204 14.9253 20.197C16.3707 19.58 17.6683 18.625 18.7013 17.3793C18.7053 17.3747 18.7057 17.368 18.7093 17.3633C20.1393 15.6327 21 13.415 21 11C21 5.486 16.514 1 11 1ZM15.0523 19.4067C15.0473 19.409 15.0427 19.4117 15.0377 19.414C14.9187 19.4713 14.7977 19.5253 14.6757 19.578C14.648 19.5897 14.6207 19.6017 14.593 19.6133C14.4863 19.658 14.3783 19.7003 14.2697 19.741C14.2243 19.758 14.179 19.7747 14.1333 19.7907C14.037 19.825 13.9403 19.858 13.8427 19.8893C13.782 19.9087 13.721 19.927 13.66 19.945C13.5733 19.971 13.4863 19.996 13.3983 20.0193C13.3243 20.039 13.2497 20.057 13.175 20.0747C13.0967 20.0933 13.0187 20.1123 12.9397 20.129C12.8533 20.1473 12.7663 20.163 12.6797 20.1787C12.6093 20.1917 12.5393 20.2053 12.4683 20.2167C12.3707 20.232 12.272 20.2443 12.1737 20.2567C12.1113 20.2647 12.0493 20.274 11.9863 20.2807C11.874 20.2927 11.7607 20.3003 11.6477 20.3083C11.5973 20.3117 11.5473 20.3173 11.4963 20.32C11.3313 20.3287 11.166 20.3333 11 20.3333C10.834 20.3333 10.6687 20.3287 10.504 20.32C10.4533 20.3173 10.4033 20.312 10.3527 20.3083C10.2393 20.3007 10.1263 20.2927 10.014 20.2807C9.951 20.274 9.889 20.2647 9.82667 20.2567C9.72833 20.2443 9.62967 20.232 9.532 20.2167C9.461 20.2053 9.391 20.1917 9.32067 20.1787C9.23367 20.163 9.14667 20.147 9.06067 20.129C8.98167 20.1123 8.90333 20.0933 8.82533 20.0747C8.75067 20.0567 8.676 20.039 8.602 20.0193C8.51433 19.996 8.427 19.9707 8.34033 19.945C8.27933 19.927 8.21833 19.9087 8.15767 19.8893C8.06 19.858 7.963 19.825 7.867 19.7907C7.82133 19.7743 7.776 19.7577 7.73067 19.741C7.622 19.7003 7.514 19.658 7.40733 19.6133C7.37967 19.602 7.35267 19.59 7.325 19.5783C7.203 19.526 7.082 19.4717 6.96267 19.4143C6.95767 19.412 6.953 19.4097 6.948 19.407C5.785 18.8443 4.75767 18.0457 3.924 17.0757C4.56833 14.703 6.39233 12.7903 8.739 12.0293C8.78533 12.0577 8.83367 12.083 8.88133 12.1097C8.90933 12.1253 8.937 12.142 8.96533 12.157C9.06467 12.2097 9.16533 12.259 9.26833 12.3033C9.34733 12.338 9.429 12.3673 9.51033 12.3973C9.52633 12.403 9.54233 12.4093 9.55833 12.415C10.0103 12.575 10.494 12.6667 11 12.6667C11.506 12.6667 11.9897 12.575 12.4413 12.415C12.4573 12.4093 12.4733 12.403 12.4893 12.3973C12.5707 12.3673 12.6523 12.338 12.7313 12.3033C12.8343 12.259 12.935 12.2097 13.0343 12.157C13.0627 12.1417 13.0903 12.1253 13.1183 12.1097C13.166 12.083 13.2147 12.0577 13.2613 12.029C15.608 12.7903 17.4317 14.703 18.0763 17.0753C17.2427 18.045 16.2153 18.8437 15.0523 19.4067ZM7.33333 8.33333C7.33333 6.31167 8.97833 4.66667 11 4.66667C13.0217 4.66667 14.6667 6.31167 14.6667 8.33333C14.6667 9.61933 13.9997 10.751 12.9947 11.4057C12.8633 11.491 12.7267 11.5673 12.5863 11.634C12.5697 11.642 12.5533 11.6503 12.5367 11.658C11.5713 12.097 10.4287 12.097 9.46333 11.658C9.44667 11.6503 9.43 11.642 9.41367 11.634C9.273 11.5673 9.13667 11.491 9.00533 11.4057C8.00033 10.751 7.33333 9.61933 7.33333 8.33333ZM18.5763 16.441C17.8207 14.2097 16.0967 12.4063 13.894 11.5497C14.775 10.756 15.3333 9.61 15.3333 8.33333C15.3333 5.944 13.3893 4 11 4C8.61067 4 6.66667 5.944 6.66667 8.33333C6.66667 9.61 7.225 10.756 8.10633 11.5497C5.90367 12.4067 4.17967 14.2097 3.424 16.441C2.31967 14.908 1.66667 13.0293 1.66667 11C1.66667 5.85367 5.85367 1.66667 11 1.66667C16.1463 1.66667 20.3333 5.85367 20.3333 11C20.3333 13.0293 19.6803 14.908 18.5763 16.441Z" fill="#2A336E"/>
<path d="M11 1C5.486 1 1 5.486 1 11C1 13.415 1.86067 15.6327 3.29133 17.3627C3.295 17.3677 3.29533 17.374 3.29933 17.3787C4.33233 18.6243 5.62967 19.5793 7.07533 20.1963C7.092 20.2033 7.10833 20.211 7.125 20.218C7.242 20.2673 7.36033 20.313 7.479 20.3577C7.52567 20.3753 7.57233 20.3933 7.61967 20.4103C7.722 20.447 7.825 20.4817 7.92867 20.515C7.995 20.5363 8.06133 20.5573 8.12833 20.5773C8.22 20.6047 8.312 20.631 8.40467 20.656C8.486 20.678 8.568 20.6983 8.65 20.718C8.733 20.738 8.81633 20.758 8.9 20.7757C8.99333 20.7957 9.08767 20.8133 9.18233 20.8307C9.25833 20.8447 9.334 20.8593 9.41067 20.8717C9.51567 20.8887 9.62133 20.902 9.72733 20.9157C9.79567 20.9243 9.86367 20.9343 9.93233 20.9417C10.0523 20.9543 10.1733 20.9633 10.2947 20.9717C10.351 20.9757 10.407 20.9817 10.4637 20.9847C10.6407 20.9947 10.8197 21 11 21C11.1803 21 11.3593 20.9947 11.537 20.9853C11.5937 20.9823 11.6497 20.9763 11.706 20.9723C11.8273 20.9637 11.9483 20.955 12.0683 20.9423C12.137 20.935 12.205 20.925 12.2733 20.9163C12.3793 20.9027 12.485 20.8893 12.59 20.8723C12.6663 20.86 12.7423 20.8453 12.8183 20.8313C12.9127 20.814 13.007 20.7963 13.1007 20.7763C13.1843 20.7583 13.2673 20.7387 13.3507 20.7187C13.4327 20.6987 13.5147 20.6783 13.596 20.6567C13.6887 20.632 13.7807 20.6053 13.8723 20.578C13.9393 20.558 14.0057 20.537 14.072 20.5157C14.1757 20.4823 14.2787 20.4477 14.381 20.411C14.428 20.394 14.4747 20.376 14.5217 20.3583C14.6407 20.3137 14.7587 20.2677 14.8757 20.2187C14.8923 20.2117 14.9087 20.204 14.9253 20.197C16.3707 19.58 17.6683 18.625 18.7013 17.3793C18.7053 17.3747 18.7057 17.368 18.7093 17.3633C20.1393 15.6327 21 13.415 21 11C21 5.486 16.514 1 11 1ZM15.0523 19.4067C15.0473 19.409 15.0427 19.4117 15.0377 19.414C14.9187 19.4713 14.7977 19.5253 14.6757 19.578C14.648 19.5897 14.6207 19.6017 14.593 19.6133C14.4863 19.658 14.3783 19.7003 14.2697 19.741C14.2243 19.758 14.179 19.7747 14.1333 19.7907C14.037 19.825 13.9403 19.858 13.8427 19.8893C13.782 19.9087 13.721 19.927 13.66 19.945C13.5733 19.971 13.4863 19.996 13.3983 20.0193C13.3243 20.039 13.2497 20.057 13.175 20.0747C13.0967 20.0933 13.0187 20.1123 12.9397 20.129C12.8533 20.1473 12.7663 20.163 12.6797 20.1787C12.6093 20.1917 12.5393 20.2053 12.4683 20.2167C12.3707 20.232 12.272 20.2443 12.1737 20.2567C12.1113 20.2647 12.0493 20.274 11.9863 20.2807C11.874 20.2927 11.7607 20.3003 11.6477 20.3083C11.5973 20.3117 11.5473 20.3173 11.4963 20.32C11.3313 20.3287 11.166 20.3333 11 20.3333C10.834 20.3333 10.6687 20.3287 10.504 20.32C10.4533 20.3173 10.4033 20.312 10.3527 20.3083C10.2393 20.3007 10.1263 20.2927 10.014 20.2807C9.951 20.274 9.889 20.2647 9.82667 20.2567C9.72833 20.2443 9.62967 20.232 9.532 20.2167C9.461 20.2053 9.391 20.1917 9.32067 20.1787C9.23367 20.163 9.14667 20.147 9.06067 20.129C8.98167 20.1123 8.90333 20.0933 8.82533 20.0747C8.75067 20.0567 8.676 20.039 8.602 20.0193C8.51433 19.996 8.427 19.9707 8.34033 19.945C8.27933 19.927 8.21833 19.9087 8.15767 19.8893C8.06 19.858 7.963 19.825 7.867 19.7907C7.82133 19.7743 7.776 19.7577 7.73067 19.741C7.622 19.7003 7.514 19.658 7.40733 19.6133C7.37967 19.602 7.35267 19.59 7.325 19.5783C7.203 19.526 7.082 19.4717 6.96267 19.4143C6.95767 19.412 6.953 19.4097 6.948 19.407C5.785 18.8443 4.75767 18.0457 3.924 17.0757C4.56833 14.703 6.39233 12.7903 8.739 12.0293C8.78533 12.0577 8.83367 12.083 8.88133 12.1097C8.90933 12.1253 8.937 12.142 8.96533 12.157C9.06467 12.2097 9.16533 12.259 9.26833 12.3033C9.34733 12.338 9.429 12.3673 9.51033 12.3973C9.52633 12.403 9.54233 12.4093 9.55833 12.415C10.0103 12.575 10.494 12.6667 11 12.6667C11.506 12.6667 11.9897 12.575 12.4413 12.415C12.4573 12.4093 12.4733 12.403 12.4893 12.3973C12.5707 12.3673 12.6523 12.338 12.7313 12.3033C12.8343 12.259 12.935 12.2097 13.0343 12.157C13.0627 12.1417 13.0903 12.1253 13.1183 12.1097C13.166 12.083 13.2147 12.0577 13.2613 12.029C15.608 12.7903 17.4317 14.703 18.0763 17.0753C17.2427 18.045 16.2153 18.8437 15.0523 19.4067ZM7.33333 8.33333C7.33333 6.31167 8.97833 4.66667 11 4.66667C13.0217 4.66667 14.6667 6.31167 14.6667 8.33333C14.6667 9.61933 13.9997 10.751 12.9947 11.4057C12.8633 11.491 12.7267 11.5673 12.5863 11.634C12.5697 11.642 12.5533 11.6503 12.5367 11.658C11.5713 12.097 10.4287 12.097 9.46333 11.658C9.44667 11.6503 9.43 11.642 9.41367 11.634C9.273 11.5673 9.13667 11.491 9.00533 11.4057C8.00033 10.751 7.33333 9.61933 7.33333 8.33333ZM18.5763 16.441C17.8207 14.2097 16.0967 12.4063 13.894 11.5497C14.775 10.756 15.3333 9.61 15.3333 8.33333C15.3333 5.944 13.3893 4 11 4C8.61067 4 6.66667 5.944 6.66667 8.33333C6.66667 9.61 7.225 10.756 8.10633 11.5497C5.90367 12.4067 4.17967 14.2097 3.424 16.441C2.31967 14.908 1.66667 13.0293 1.66667 11C1.66667 5.85367 5.85367 1.66667 11 1.66667C16.1463 1.66667 20.3333 5.85367 20.3333 11C20.3333 13.0293 19.6803 14.908 18.5763 16.441Z" stroke="#2A336E" mask="url(#path-1-outside-1_69:183)"/>
</svg>
