<svg transform="rotate(180)" width="26" height="26" viewBox="0 0 26 26" fill="none" xmlns="http://www.w3.org/2000/svg">
  <path
    fillRule="evenodd"
    clipRule="evenodd"
    d="M25 13C25 19.6274 19.6274 25 13 25C6.37258 25 1 19.6274 1 13C1 6.37258 6.37258 1 13 1C19.6274 1 25 6.37258 25 13ZM26 13C26 20.1797 20.1797 26 13 26C5.8203 26 0 20.1797 0 13C0 5.8203 5.8203 0 13 0C20.1797 0 26 5.8203 26 13ZM9.46447 17.1716L12.6464 20.3536C12.8417 20.5488 13.1583 20.5488 13.3536 20.3536L16.5355 17.1716C16.7308 16.9763 16.7308 16.6597 16.5355 16.4645C16.3403 16.2692 16.0237 16.2692 15.8284 16.4645L13.5 18.7929V5H12.5V18.7929L10.1716 16.4645C9.97631 16.2692 9.65973 16.2692 9.46447 16.4645C9.2692 16.6597 9.2692 16.9763 9.46447 17.1716Z"
    fill="current"
  />
</svg>