<svg width="20" height="20" viewBox="0 0 20 20" fill="none" xmlns="http://www.w3.org/2000/svg">
<path fill-rule="evenodd" clip-rule="evenodd" d="M5 2.5C4.33696 2.5 3.70107 2.76339 3.23223 3.23223C2.76339 3.70107 2.5 4.33696 2.5 5V15C2.5 15.663 2.76339 16.2989 3.23223 16.7678C3.70107 17.2366 4.33696 17.5 5 17.5H14.1667C14.3877 17.5 14.5996 17.4122 14.7559 17.2559C14.9122 17.0996 15 16.8877 15 16.6667C15 16.4457 14.9122 16.2337 14.7559 16.0774C14.5996 15.9211 14.3877 15.8333 14.1667 15.8333H5C4.77899 15.8333 4.56702 15.7455 4.41074 15.5893C4.25446 15.433 4.16667 15.221 4.16667 15V5C4.16667 4.77899 4.25446 4.56702 4.41074 4.41074C4.56702 4.25446 4.77899 4.16667 5 4.16667H14.1667C14.3877 4.16667 14.5996 4.07887 14.7559 3.92259C14.9122 3.76631 15 3.55435 15 3.33333C15 3.11232 14.9122 2.90036 14.7559 2.74408C14.5996 2.5878 14.3877 2.5 14.1667 2.5H5ZM13.0892 6.0775C13.0123 5.99791 12.9203 5.93442 12.8187 5.89075C12.717 5.84707 12.6076 5.82409 12.497 5.82312C12.3864 5.82216 12.2766 5.84325 12.1742 5.88515C12.0718 5.92705 11.9787 5.98893 11.9005 6.06717C11.8223 6.14541 11.7604 6.23846 11.7185 6.34087C11.6766 6.44329 11.6555 6.55302 11.6565 6.66367C11.6574 6.77432 11.6804 6.88367 11.7241 6.98534C11.7678 7.08701 11.8312 7.17896 11.9108 7.25583L13.8217 9.16667H6.66667C6.44565 9.16667 6.23369 9.25446 6.07741 9.41074C5.92113 9.56702 5.83333 9.77899 5.83333 10C5.83333 10.221 5.92113 10.433 6.07741 10.5893C6.23369 10.7455 6.44565 10.8333 6.66667 10.8333H13.8217L11.9108 12.7442C11.759 12.9013 11.675 13.1118 11.6769 13.3303C11.6788 13.5488 11.7665 13.7578 11.921 13.9123C12.0755 14.0669 12.2845 14.1545 12.503 14.1564C12.7215 14.1583 12.932 14.0743 13.0892 13.9225L16.4225 10.5892C16.5787 10.4329 16.6665 10.221 16.6665 10C16.6665 9.77903 16.5787 9.56711 16.4225 9.41083L13.0892 6.0775V6.0775Z" fill="#2A336E"/>
</svg>
